<?xml version="1.0" encoding="UTF-8"?>
<svg id="Layer_1" data-name="Layer 1" xmlns="http://www.w3.org/2000/svg" version="1.1" viewBox="0 0 800 800">
  <defs>
    <style>
      .cls-1 {
        fill: #B125EA;
        stroke-width: 0px;
      }
    </style>
  </defs>
  <polygon class="cls-1" points="44.5 49.2 44.5 400.2 395.5 49.2 44.5 49.2"/>
  <polygon class="cls-1" points="581.8 574.6 408.2 399.6 408 399.8 408.8 400.5 58.6 750.8 755.5 750.8 755.5 749.6 581.8 574.6"/>
  <polygon class="cls-1" points="397 399.4 397.2 399.6 570.8 224.5 743 50.8 570.8 224.1 397 399.4"/>
  <polygon class="cls-1" points="397 399.8 397.2 399.6 397 399.4 570.8 224.1 743 50.8 402.5 50.8 44.5 408.7 44.5 750.8 47.6 750.8 397.8 400.5 397 399.8"/>
  <polygon class="cls-1" points="397 399.8 397.2 399.6 397 399.4 570.8 224.1 743 50.8 402.5 50.8 44.5 408.7 44.5 750.8 47.6 750.8 397.8 400.5 397 399.8"/>
</svg>