<?xml version="1.0" encoding="UTF-8"?>
<svg id="Layer_1" data-name="Layer 1" xmlns="http://www.w3.org/2000/svg" version="1.1" viewBox="0 0 2183 2500">
  <defs>
    <style>
      .cls-1 {
        fill: #607b96;
      }

      .cls-1, .cls-2 {
        stroke-width: 0px;
      }

      .cls-2 {
        fill: #4e667a;
      }
    </style>
  </defs>
  <path class="cls-1" d="M8.2,4.2l182.8,2233.9,916.9,257.7,890-257.7L2191.2,8.7,8.2,4.2ZM1011.7,2160.8l-642.6-167.2v-413.7l220.1,35.2v184.9l184.9,35.2V461.9h237.7v1698.9ZM1803.9,725.1h-362.8v431.9h362.8l-44,871.7-569.9,132v-272.9l385.1-132,22.2-360.9-407.3,59V461.9h657.9l-44,263.2Z"/>
  <path class="cls-2" d="M1099.7,216.9v2063.1l738.7-214.3,160.3-1845.9-899-3ZM1795.7,725.1h-362.8v431.9h362.8l-44,871.7-569.9,132v-272.9l385.1-132,22.2-360.9-407.3,59V461.9h657.9l-44,263.2Z"/>
</svg>